# Made in Blockbench 5.0.7
mtllib ITC__1.mtl

o mesh
v 0.46875 0.8125 1.5
v 0.46875 0.8125 -0.5
v 0.46875 0 1.5
v 0.46875 0 -0.5
v 0.40625 0.8125 1.5
v 0.40625 0.8125 -0.5
v 0.40625 0 1.5
v 0.40625 0 -0.5
vt 0.5 1
vt 0 1
vt 0 0.796875
vt 0.5 0.796875
vt 0.5 0.578125
vt 0.5 0.78125
vt 0 0.78125
vt 0 0.578125
vt 0 0.0625
vt 0.015625 0.0625
vt 0.015625 0.5625
vt 0 0.5625
vt 0.046875 0.0625
vt 0.046875 0.5625
vt 0.03125 0.5625
vt 0.03125 0.0625
vt 0.078125 0.359375
vt 0.078125 0.5625
vt 0.0625 0.5625
vt 0.0625 0.359375
vt 0.109375 0.5625
vt 0.09375 0.5625
vt 0.09375 0.359375
vt 0.109375 0.359375
vn 1 0 0
vn -1 0 0
vn 0 1 0
vn 0 -1 0
vn 0 0 1
vn 0 0 -1
usemtl m_f16c821a-6ba3-09cd-41db-84c7d4eaeb6b
f 2/1/1 1/2/1 3/3/1 4/4/1
f 7/5/2 5/6/2 6/7/2 8/8/2
f 5/9/3 1/10/3 2/11/3 6/12/3
f 4/13/4 3/14/4 7/15/4 8/16/4
f 3/17/5 1/18/5 5/19/5 7/20/5
f 6/21/6 2/22/6 4/23/6 8/24/6
o mesh
v 0.5 0.8125 -0.375
v 0.5 0.8125 -0.5
v 0.5 0 -0.375
v 0.5 0 -0.5
v -0.5 0.8125 -0.375
v -0.5 0.8125 -0.5
v -0.5 0 -0.375
v -0.5 0 -0.5
vt 0.296875 0.90625
vt 0.265625 0.90625
vt 0.265625 0.703125
vt 0.296875 0.703125
vt 0.34375 0.703125
vt 0.34375 0.90625
vt 0.3125 0.90625
vt 0.3125 0.703125
vt 0.265625 0.96875
vt 0.515625 0.96875
vt 0.515625 1
vt 0.265625 1
vt 0.515625 0.921875
vt 0.515625 0.953125
vt 0.265625 0.953125
vt 0.265625 0.921875
vt 0.25 0.796875
vt 0.25 1
vt 0 1
vt 0 0.796875
vt 0.25 0.78125
vt 0 0.78125
vt 0 0.578125
vt 0.25 0.578125
vn 1 0 0
vn -1 0 0
vn 0 1 0
vn 0 -1 0
vn 0 0 1
vn 0 0 -1
usemtl m_14944374-3036-6b3a-516a-b7d126be6af7
f 10/25/7 9/26/7 11/27/7 12/28/7
f 15/29/8 13/30/8 14/31/8 16/32/8
f 13/33/9 9/34/9 10/35/9 14/36/9
f 12/37/10 11/38/10 15/39/10 16/40/10
f 11/41/11 9/42/11 13/43/11 15/44/11
f 14/45/12 10/46/12 12/47/12 16/48/12
o mesh
v 0.5 0.8125 1.5
v 0.5 0.8125 1.375
v 0.5 0 1.5
v 0.5 0 1.375
v -0.5 0.8125 1.5
v -0.5 0.8125 1.375
v -0.5 0 1.5
v -0.5 0 1.375
vt 0.25 1
vt 0 1
vt 0 0.796875
vt 0.25 0.796875
vt 0.25 0.796875
vt 0.25 1
vt 0 1
vt 0 0.796875
vt 0 0.75
vt 0.25 0.75
vt 0.25 1
vt 0 1
vt 0.25 0.75
vt 0.25 1
vt 0 1
vt 0 0.75
vt 0.25 0.796875
vt 0.25 1
vt 0 1
vt 0 0.796875
vt 0.25 1
vt 0 1
vt 0 0.796875
vt 0.25 0.796875
vn 1 0 0
vn -1 0 0
vn 0 1 0
vn 0 -1 0
vn 0 0 1
vn 0 0 -1
usemtl m_14944374-3036-6b3a-516a-b7d126be6af7
f 18/49/13 17/50/13 19/51/13 20/52/13
f 23/53/14 21/54/14 22/55/14 24/56/14
f 21/57/15 17/58/15 18/59/15 22/60/15
f 20/61/16 19/62/16 23/63/16 24/64/16
f 19/65/17 17/66/17 21/67/17 23/68/17
f 22/69/18 18/70/18 20/71/18 24/72/18
o mesh
v 0.46875 0.4375 1.40625
v 0.46875 0.4375 -0.40625
v 0.46875 0.375 1.40625
v 0.46875 0.375 -0.40625
v -0.09375 0.4375 1.40625
v -0.09375 0.4375 -0.40625
v -0.09375 0.375 1.40625
v -0.09375 0.375 -0.40625
vt 0.765625 1
vt 0.3125 1
vt 0.3125 0.984375
vt 0.765625 0.984375
vt 0.765625 0.953125
vt 0.765625 0.96875
vt 0.3125 0.96875
vt 0.3125 0.953125
vt 0 0.546875
vt 0.140625 0.546875
vt 0.140625 1
vt 0 1
vt 0.296875 0.546875
vt 0.296875 1
vt 0.15625 1
vt 0.15625 0.546875
vt 0.453125 0.921875
vt 0.453125 0.9375
vt 0.3125 0.9375
vt 0.3125 0.921875
vt 0.453125 0.90625
vt 0.3125 0.90625
vt 0.3125 0.890625
vt 0.453125 0.890625
vn 1 0 0
vn -1 0 0
vn 0 1 0
vn 0 -1 0
vn 0 0 1
vn 0 0 -1
usemtl m_daab3a8b-7219-23dc-749d-9ac98309e293
f 26/73/19 25/74/19 27/75/19 28/76/19
f 31/77/20 29/78/20 30/79/20 32/80/20
f 29/81/21 25/82/21 26/83/21 30/84/21
f 28/85/22 27/86/22 31/87/22 32/88/22
f 27/89/23 25/90/23 29/91/23 31/92/23
f 30/93/24 26/94/24 28/95/24 32/96/24
o mesh
v 0.53125 0.875 1.5625
v 0.53125 0.875 -0.5625
v 0.53125 0.6875 1.5625
v 0.53125 0.6875 -0.5625
v -0.53125 0.875 1.5625
v -0.53125 0.875 -0.5625
v -0.53125 0.6875 1.5625
v -0.53125 0.6875 -0.5625
vt 0.265625 0.7265625
vt 0 0.7265625
vt 0 0.703125
vt 0.265625 0.703125
vt 0.5390625 0.703125
vt 0.5390625 0.7265625
vt 0.2734375 0.7265625
vt 0.2734375 0.703125
vt 0 0.734375
vt 0.1328125 0.734375
vt 0.1328125 1
vt 0 1
vt 0.2734375 0.734375
vt 0.2734375 1
vt 0.140625 1
vt 0.140625 0.734375
vt 0.4140625 0.9765625
vt 0.4140625 1
vt 0.28125 1
vt 0.28125 0.9765625
vt 0.4140625 0.96875
vt 0.28125 0.96875
vt 0.28125 0.9453125
vt 0.4140625 0.9453125
vn 1 0 0
vn -1 0 0
vn 0 1 0
vn 0 -1 0
vn 0 0 1
vn 0 0 -1
usemtl m_7d341ba7-0818-a0f2-2435-e9d70f0073b0
f 34/97/25 33/98/25 35/99/25 36/100/25
f 39/101/26 37/102/26 38/103/26 40/104/26
f 37/105/27 33/106/27 34/107/27 38/108/27
f 36/109/28 35/110/28 39/111/28 40/112/28
f 35/113/29 33/114/29 37/115/29 39/116/29
f 38/117/30 34/118/30 36/119/30 40/120/30
o mesh
v 0.4375 1.21875 1.46875
v 0.4375 1.21875 -0.46875
v 0.4375 0.84375 1.46875
v 0.4375 0.84375 -0.46875
v 0.3125 1.21875 1.46875
v 0.3125 1.21875 -0.46875
v 0.3125 0.84375 1.46875
v 0.3125 0.84375 -0.46875
vt 0.484375 1
vt 0 1
vt 0 0.90625
vt 0.484375 0.90625
vt 0.484375 0.796875
vt 0.484375 0.890625
vt 0 0.890625
vt 0 0.796875
vt 0 0.296875
vt 0.03125 0.296875
vt 0.03125 0.78125
vt 0 0.78125
vt 0.078125 0.296875
vt 0.078125 0.78125
vt 0.046875 0.78125
vt 0.046875 0.296875
vt 0.125 0.6875
vt 0.125 0.78125
vt 0.09375 0.78125
vt 0.09375 0.6875
vt 0.171875 0.78125
vt 0.140625 0.78125
vt 0.140625 0.6875
vt 0.171875 0.6875
vn 1 0 0
vn -1 0 0
vn 0 1 0
vn 0 -1 0
vn 0 0 1
vn 0 0 -1
usemtl m_a876acb9-9bd4-7594-4d11-6956a2e4eb65
f 42/121/31 41/122/31 43/123/31 44/124/31
f 47/125/32 45/126/32 46/127/32 48/128/32
f 45/129/33 41/130/33 42/131/33 46/132/33
f 44/133/34 43/134/34 47/135/34 48/136/34
f 43/137/35 41/138/35 45/139/35 47/140/35
f 46/141/36 42/142/36 44/143/36 48/144/36
o mesh
v 0.43404536794660176 1.2133582307139608 1.46875
v 0.43404536794660176 1.2133582307139608 1.40625
v 0.4177295939190953 1.0894276230422344 1.46875
v 0.4177295939190953 1.0894276230422344 1.40625
v -0.061677062740303434 1.2786213268239865 1.46875
v -0.061677062740303434 1.2786213268239865 1.40625
v -0.07799283676780988 1.1546907191522602 1.46875
v -0.07799283676780988 1.1546907191522602 1.40625
vt 0.625 1
vt 0.5625 1
vt 0.5625 0.875
vt 0.625 0.875
vt 0.625 0.6875
vt 0.625 0.8125
vt 0.5625 0.8125
vt 0.5625 0.6875
vt 0 0.5625
vt 0.5 0.5625
vt 0.5 0.625
vt 0 0.625
vt 0.5 0.4375
vt 0.5 0.5
vt 0 0.5
vt 0 0.4375
vt 0.5 0.875
vt 0.5 1
vt 0 1
vt 0 0.875
vt 0.5 0.8125
vt 0 0.8125
vt 0 0.6875
vt 0.5 0.6875
vn 0.9914448613738104 -0.13052619222005157 0
vn -0.9914448613738104 0.13052619222005157 0
vn 0.13052619222005157 0.9914448613738104 0
vn -0.13052619222005157 -0.9914448613738104 0
vn 0 0 1
vn 0 0 -1
usemtl m_141ffa8e-b300-9605-fdcd-6541f911c567
f 50/145/37 49/146/37 51/147/37 52/148/37
f 55/149/38 53/150/38 54/151/38 56/152/38
f 53/153/39 49/154/39 50/155/39 54/156/39
f 52/157/40 51/158/40 55/159/40 56/160/40
f 51/161/41 49/162/41 53/163/41 55/164/41
f 54/165/42 50/166/42 52/167/42 56/168/42
o circle
v 0 1.2125 -0.0625
v 0.05861375 0.9937499999999999 -0.06249999999999995
v 0.16013625 1.0523637499999998 -0.062499999999999965
v 0.21875 1.15388625 -0.062499999999999986
v 0.21875 1.2711137499999998 -0.06250000000000001
v 0.16013625 1.37263625 -0.06250000000000004
v 0.05861375 1.43125 -0.06250000000000006
v -0.05861375 1.43125 -0.06250000000000006
v -0.16013625 1.37263625 -0.06250000000000004
v -0.21875 1.2711137499999998 -0.06250000000000001
v -0.21875 1.15388625 -0.062499999999999986
v -0.16013625 1.0523637499999998 -0.062499999999999965
v -0.05861375 0.9937499999999999 -0.06249999999999995
vt 0.757775 0.24222500000000002
vt 0.875 0.445275
vt 0.4375 0.5625
vt 0.875 0.445275
vt 0.875 0.679725
vt 0.4375 0.5625
vt 0.875 0.679725
vt 0.757775 0.882775
vt 0.4375 0.5625
vt 0.757775 0.882775
vt 0.554725 1
vt 0.4375 0.5625
vt 0.554725 1
vt 0.320275 1
vt 0.4375 0.5625
vt 0.320275 1
vt 0.117225 0.882775
vt 0.4375 0.5625
vt 0.117225 0.882775
vt 0 0.679725
vt 0.4375 0.5625
vt 0 0.679725
vt 0 0.445275
vt 0.4375 0.5625
vt 0 0.445275
vt 0.117225 0.24222500000000002
vt 0.4375 0.5625
vt 0.117225 0.24222500000000002
vt 0.320275 0.125
vt 0.4375 0.5625
vt 0.320275 0.125
vt 0.554725 0.125
vt 0.4375 0.5625
vt 0.554725 0.125
vt 0.757775 0.24222500000000002
vt 0.4375 0.5625
vn 0 2.220446049250313e-16 1
vn 0 2.220446049250313e-16 1
vn 0 2.220446049250313e-16 1
vn 0 2.220446049250313e-16 1
vn 0 2.220446049250313e-16 1
vn 0 2.220446049250313e-16 1
vn 0 2.220446049250313e-16 1
vn 0 2.220446049250313e-16 1
vn 0 2.220446049250313e-16 1
vn 0 2.220446049250313e-16 1
vn 0 2.220446049250313e-16 1
vn 0 2.220446049250313e-16 1
usemtl m_e8b18ad9-d6ea-e27f-cecb-5f41e953b755
f 59/169/43 60/170/43 57/171/43
f 60/172/44 61/173/44 57/174/44
f 61/175/45 62/176/45 57/177/45
f 62/178/46 63/179/46 57/180/46
f 63/181/47 64/182/47 57/183/47
f 64/184/48 65/185/48 57/186/48
f 65/187/49 66/188/49 57/189/49
f 66/190/50 67/191/50 57/192/50
f 67/193/51 68/194/51 57/195/51
f 68/196/52 69/197/52 57/198/52
f 69/199/53 58/200/53 57/201/53
f 58/202/54 59/203/54 57/204/54
o cylinder
v 0 1.2124999999999997 -0.4375
v 0 1.2125000000000001 1.4375
v 0.008373125 1.1812499999999997 -0.4375
v 0.008373125 1.1812500000000001 1.4375
v 0.022876875 1.1896231249999998 -0.4375
v 0.022876875 1.1896231250000002 1.4375
v 0.03125 1.2041268749999998 -0.4375
v 0.03125 1.2041268750000003 1.4375
v 0.03125 1.2208731249999998 -0.4375
v 0.03125 1.2208731250000002 1.4375
v 0.022876875 1.2353768749999998 -0.4375
v 0.022876875 1.2353768750000003 1.4375
v 0.008373125 1.2437499999999997 -0.4375
v 0.008373125 1.2437500000000001 1.4375
v -0.008373125 1.2437499999999997 -0.4375
v -0.008373125 1.2437500000000001 1.4375
v -0.022876875 1.2353768749999998 -0.4375
v -0.022876875 1.2353768750000003 1.4375
v -0.03125 1.2208731249999998 -0.4375
v -0.03125 1.2208731250000002 1.4375
v -0.03125 1.2041268749999998 -0.4375
v -0.03125 1.2041268750000003 1.4375
v -0.022876875 1.1896231249999998 -0.4375
v -0.022876875 1.1896231250000002 1.4375
v -0.008373125 1.1812499999999997 -0.4375
v -0.008373125 1.1812500000000001 1.4375
vt 0.2770625 0.9958125
vt 0.2698125 1
vt 0.265625 0.984375
vt 0.0823125 0.0625
vt 0.0906875 0.0625
vt 0.0906875 1
vt 0.0823125 1
vt 0.2698125 0.90625
vt 0.2770625 0.9104375
vt 0.265625 0.921875
vt 0.28125 0.9885625
vt 0.2770625 0.9958125
vt 0.265625 0.984375
vt 0.0030625 0.0625
vt 0.0114375 0.0625
vt 0.0114375 1
vt 0.0030625 1
vt 0.2770625 0.9104375
vt 0.28125 0.9176875
vt 0.265625 0.921875
vt 0.28125 0.9801875
vt 0.28125 0.9885625
vt 0.265625 0.984375
vt 0.0114375 0.0625
vt 0.0198125 0.0625
vt 0.0198125 1
vt 0.0114375 1
vt 0.28125 0.9176875
vt 0.28125 0.9260625
vt 0.265625 0.921875
vt 0.2770625 0.9729375
vt 0.28125 0.9801875
vt 0.265625 0.984375
vt 0.0198125 0.0625
vt 0.0281875 0.0625
vt 0.0281875 1
vt 0.0198125 1
vt 0.28125 0.9260625
vt 0.2770625 0.9333125
vt 0.265625 0.921875
vt 0.2698125 0.96875
vt 0.2770625 0.9729375
vt 0.265625 0.984375
vt 0.1905625 0.0625
vt 0.1989375 0.0625
vt 0.1989375 1
vt 0.1905625 1
vt 0.2770625 0.9333125
vt 0.2698125 0.9375
vt 0.265625 0.921875
vt 0.2614375 0.96875
vt 0.2698125 0.96875
vt 0.265625 0.984375
vt 0.1989375 0.0625
vt 0.2073125 0.0625
vt 0.2073125 1
vt 0.1989375 1
vt 0.2698125 0.9375
vt 0.2614375 0.9375
vt 0.265625 0.921875
vt 0.2541875 0.9729375
vt 0.2614375 0.96875
vt 0.265625 0.984375
vt 0.2073125 0.0625
vt 0.2156875 0.0625
vt 0.2156875 1
vt 0.2073125 1
vt 0.2614375 0.9375
vt 0.2541875 0.9333125
vt 0.265625 0.921875
vt 0.25 0.9801875
vt 0.2541875 0.9729375
vt 0.265625 0.984375
vt 0.1280625 0.0625
vt 0.1364375 0.0625
vt 0.1364375 1
vt 0.1280625 1
vt 0.2541875 0.9333125
vt 0.25 0.9260625
vt 0.265625 0.921875
vt 0.25 0.9885625
vt 0.25 0.9801875
vt 0.265625 0.984375
vt 0.1364375 0.0625
vt 0.1448125 0.0625
vt 0.1448125 1
vt 0.1364375 1
vt 0.25 0.9260625
vt 0.25 0.9176875
vt 0.265625 0.921875
vt 0.2541875 0.9958125
vt 0.25 0.9885625
vt 0.265625 0.984375
vt 0.1448125 0.0625
vt 0.1531875 0.0625
vt 0.1531875 1
vt 0.1448125 1
vt 0.25 0.9176875
vt 0.2541875 0.9104375
vt 0.265625 0.921875
vt 0.2614375 1
vt 0.2541875 0.9958125
vt 0.265625 0.984375
vt 0.0655625 0.0625
vt 0.0739375 0.0625
vt 0.0739375 1
vt 0.0655625 1
vt 0.2541875 0.9104375
vt 0.2614375 0.90625
vt 0.265625 0.921875
vt 0.2698125 1
vt 0.2614375 1
vt 0.265625 0.984375
vt 0.0739375 0.0625
vt 0.0823125 0.0625
vt 0.0823125 1
vt 0.0739375 1
vt 0.2614375 0.90625
vt 0.2698125 0.90625
vt 0.265625 0.921875
vn 0 -2.220446049250313e-16 -1
vn 0.49997228014499284 -0.8660414072586928 1.922998221234746e-16
vn 0 2.220446049250313e-16 1
vn 0 -2.220446049250313e-16 -1
vn 0.8660414072586928 -0.49997228014499284 1.1101614741826201e-16
vn 0 2.220446049250313e-16 1
vn 0 -2.220446049250313e-16 -1
vn 1 0 0
vn 0 2.220446049250313e-16 1
vn 0 -2.220446049250313e-16 -1
vn 0.8660414072586928 0.49997228014499284 -1.1101614741826201e-16
vn 0 2.220446049250313e-16 1
vn 0 -2.220446049250313e-16 -1
vn 0.49997228014499284 0.8660414072586928 -1.922998221234746e-16
vn 0 2.220446049250313e-16 1
vn 0 -2.220446049250313e-16 -1
vn 0 1 -2.220446049250313e-16
vn 0 2.220446049250313e-16 1
vn 0 -2.220446049250313e-16 -1
vn -0.49997228014499284 0.8660414072586928 -1.922998221234746e-16
vn 0 2.220446049250313e-16 1
vn 0 -2.220446049250313e-16 -1
vn -0.8660414072586928 0.49997228014499284 -1.1101614741826201e-16
vn 0 2.220446049250313e-16 1
vn 0 -2.220446049250313e-16 -1
vn -1 0 0
vn 0 2.220446049250313e-16 1
vn 0 -2.220446049250313e-16 -1
vn -0.8660414072586928 -0.49997228014499284 1.1101614741826201e-16
vn 0 2.220446049250313e-16 1
vn 0 -2.220446049250313e-16 -1
vn -0.49997228014499284 -0.8660414072586928 1.922998221234746e-16
vn 0 2.220446049250313e-16 1
vn 0 -2.220446049250313e-16 -1
vn 0 -1 2.220446049250313e-16
vn 0 2.220446049250313e-16 1
usemtl m_aa030b9a-4354-5f24-c0d6-125877611d75
f 74/205/55 72/206/55 70/207/55
f 72/208/56 74/209/56 75/210/56 73/211/56
f 73/212/57 75/213/57 71/214/57
f 76/215/58 74/216/58 70/217/58
f 74/218/59 76/219/59 77/220/59 75/221/59
f 75/222/60 77/223/60 71/224/60
f 78/225/61 76/226/61 70/227/61
f 76/228/62 78/229/62 79/230/62 77/231/62
f 77/232/63 79/233/63 71/234/63
f 80/235/64 78/236/64 70/237/64
f 78/238/65 80/239/65 81/240/65 79/241/65
f 79/242/66 81/243/66 71/244/66
f 82/245/67 80/246/67 70/247/67
f 80/248/68 82/249/68 83/250/68 81/251/68
f 81/252/69 83/253/69 71/254/69
f 84/255/70 82/256/70 70/257/70
f 82/258/71 84/259/71 85/260/71 83/261/71
f 83/262/72 85/263/72 71/264/72
f 86/265/73 84/266/73 70/267/73
f 84/268/74 86/269/74 87/270/74 85/271/74
f 85/272/75 87/273/75 71/274/75
f 88/275/76 86/276/76 70/277/76
f 86/278/77 88/279/77 89/280/77 87/281/77
f 87/282/78 89/283/78 71/284/78
f 90/285/79 88/286/79 70/287/79
f 88/288/80 90/289/80 91/290/80 89/291/80
f 89/292/81 91/293/81 71/294/81
f 92/295/82 90/296/82 70/297/82
f 90/298/83 92/299/83 93/300/83 91/301/83
f 91/302/84 93/303/84 71/304/84
f 94/305/85 92/306/85 70/307/85
f 92/308/86 94/309/86 95/310/86 93/311/86
f 93/312/87 95/313/87 71/314/87
f 72/315/88 94/316/88 70/317/88
f 94/318/89 72/319/89 73/320/89 95/321/89
f 95/322/90 73/323/90 71/324/90
o circle
v 0 1.2125 0
v 0.05861375 0.9937499999999999 4.85722573273506e-17
v 0.16013625 1.0523637499999998 3.5557390365426047e-17
v 0.21875 1.15388625 1.3014866961924554e-17
v 0.21875 1.2711137499999998 -1.3014866961924554e-17
v 0.16013625 1.37263625 -3.5557390365426047e-17
v 0.05861375 1.43125 -4.85722573273506e-17
v -0.05861375 1.43125 -4.85722573273506e-17
v -0.16013625 1.37263625 -3.5557390365426047e-17
v -0.21875 1.2711137499999998 -1.3014866961924554e-17
v -0.21875 1.15388625 1.3014866961924554e-17
v -0.16013625 1.0523637499999998 3.5557390365426047e-17
v -0.05861375 0.9937499999999999 4.85722573273506e-17
vt 0.757775 0.24222500000000002
vt 0.875 0.445275
vt 0.4375 0.5625
vt 0.875 0.445275
vt 0.875 0.679725
vt 0.4375 0.5625
vt 0.875 0.679725
vt 0.757775 0.882775
vt 0.4375 0.5625
vt 0.757775 0.882775
vt 0.554725 1
vt 0.4375 0.5625
vt 0.554725 1
vt 0.320275 1
vt 0.4375 0.5625
vt 0.320275 1
vt 0.117225 0.882775
vt 0.4375 0.5625
vt 0.117225 0.882775
vt 0 0.679725
vt 0.4375 0.5625
vt 0 0.679725
vt 0 0.445275
vt 0.4375 0.5625
vt 0 0.445275
vt 0.117225 0.24222500000000002
vt 0.4375 0.5625
vt 0.117225 0.24222500000000002
vt 0.320275 0.125
vt 0.4375 0.5625
vt 0.320275 0.125
vt 0.554725 0.125
vt 0.4375 0.5625
vt 0.554725 0.125
vt 0.757775 0.24222500000000002
vt 0.4375 0.5625
vn 0 2.220446049250313e-16 1
vn 0 2.220446049250313e-16 1
vn 0 2.220446049250313e-16 1
vn 0 2.220446049250313e-16 1
vn 0 2.220446049250313e-16 1
vn 0 2.220446049250313e-16 1
vn 0 2.220446049250313e-16 1
vn 0 2.220446049250313e-16 1
vn 0 2.220446049250313e-16 1
vn 0 2.220446049250313e-16 1
vn 0 2.220446049250313e-16 1
vn 0 2.220446049250313e-16 1
usemtl m_e8b18ad9-d6ea-e27f-cecb-5f41e953b755
f 98/325/91 99/326/91 96/327/91
f 99/328/92 100/329/92 96/330/92
f 100/331/93 101/332/93 96/333/93
f 101/334/94 102/335/94 96/336/94
f 102/337/95 103/338/95 96/339/95
f 103/340/96 104/341/96 96/342/96
f 104/343/97 105/344/97 96/345/97
f 105/346/98 106/347/98 96/348/98
f 106/349/99 107/350/99 96/351/99
f 107/352/100 108/353/100 96/354/100
f 108/355/101 97/356/101 96/357/101
f 97/358/102 98/359/102 96/360/102
o circle
v 0 1.2125 0.0625
v 0.05861375 0.9937499999999999 0.06250000000000006
v 0.16013625 1.0523637499999998 0.06250000000000004
v 0.21875 1.15388625 0.06250000000000001
v 0.21875 1.2711137499999998 0.062499999999999986
v 0.16013625 1.37263625 0.062499999999999965
v 0.05861375 1.43125 0.06249999999999995
v -0.05861375 1.43125 0.06249999999999995
v -0.16013625 1.37263625 0.062499999999999965
v -0.21875 1.2711137499999998 0.062499999999999986
v -0.21875 1.15388625 0.06250000000000001
v -0.16013625 1.0523637499999998 0.06250000000000004
v -0.05861375 0.9937499999999999 0.06250000000000006
vt 0.757775 0.24222500000000002
vt 0.875 0.445275
vt 0.4375 0.5625
vt 0.875 0.445275
vt 0.875 0.679725
vt 0.4375 0.5625
vt 0.875 0.679725
vt 0.757775 0.882775
vt 0.4375 0.5625
vt 0.757775 0.882775
vt 0.554725 1
vt 0.4375 0.5625
vt 0.554725 1
vt 0.320275 1
vt 0.4375 0.5625
vt 0.320275 1
vt 0.117225 0.882775
vt 0.4375 0.5625
vt 0.117225 0.882775
vt 0 0.679725
vt 0.4375 0.5625
vt 0 0.679725
vt 0 0.445275
vt 0.4375 0.5625
vt 0 0.445275
vt 0.117225 0.24222500000000002
vt 0.4375 0.5625
vt 0.117225 0.24222500000000002
vt 0.320275 0.125
vt 0.4375 0.5625
vt 0.320275 0.125
vt 0.554725 0.125
vt 0.4375 0.5625
vt 0.554725 0.125
vt 0.757775 0.24222500000000002
vt 0.4375 0.5625
vn 0 2.220446049250313e-16 1
vn 0 2.220446049250313e-16 1
vn 0 2.220446049250313e-16 1
vn 0 2.220446049250313e-16 1
vn 0 2.220446049250313e-16 1
vn 0 2.220446049250313e-16 1
vn 0 2.220446049250313e-16 1
vn 0 2.220446049250313e-16 1
vn 0 2.220446049250313e-16 1
vn 0 2.220446049250313e-16 1
vn 0 2.220446049250313e-16 1
vn 0 2.220446049250313e-16 1
usemtl m_e8b18ad9-d6ea-e27f-cecb-5f41e953b755
f 111/361/103 112/362/103 109/363/103
f 112/364/104 113/365/104 109/366/104
f 113/367/105 114/368/105 109/369/105
f 114/370/106 115/371/106 109/372/106
f 115/373/107 116/374/107 109/375/107
f 116/376/108 117/377/108 109/378/108
f 117/379/109 118/380/109 109/381/109
f 118/382/110 119/383/110 109/384/110
f 119/385/111 120/386/111 109/387/111
f 120/388/112 121/389/112 109/390/112
f 121/391/113 110/392/113 109/393/113
f 110/394/114 111/395/114 109/396/114
o circle
v 0 1.2125 0.125
v 0.05861375 0.9937499999999999 0.12500000000000006
v 0.16013625 1.0523637499999998 0.12500000000000003
v 0.21875 1.15388625 0.125
v 0.21875 1.2711137499999998 0.12499999999999999
v 0.16013625 1.37263625 0.12499999999999996
v 0.05861375 1.43125 0.12499999999999994
v -0.05861375 1.43125 0.12499999999999994
v -0.16013625 1.37263625 0.12499999999999996
v -0.21875 1.2711137499999998 0.12499999999999999
v -0.21875 1.15388625 0.125
v -0.16013625 1.0523637499999998 0.12500000000000003
v -0.05861375 0.9937499999999999 0.12500000000000006
vt 0.757775 0.24222500000000002
vt 0.875 0.445275
vt 0.4375 0.5625
vt 0.875 0.445275
vt 0.875 0.679725
vt 0.4375 0.5625
vt 0.875 0.679725
vt 0.757775 0.882775
vt 0.4375 0.5625
vt 0.757775 0.882775
vt 0.554725 1
vt 0.4375 0.5625
vt 0.554725 1
vt 0.320275 1
vt 0.4375 0.5625
vt 0.320275 1
vt 0.117225 0.882775
vt 0.4375 0.5625
vt 0.117225 0.882775
vt 0 0.679725
vt 0.4375 0.5625
vt 0 0.679725
vt 0 0.445275
vt 0.4375 0.5625
vt 0 0.445275
vt 0.117225 0.24222500000000002
vt 0.4375 0.5625
vt 0.117225 0.24222500000000002
vt 0.320275 0.125
vt 0.4375 0.5625
vt 0.320275 0.125
vt 0.554725 0.125
vt 0.4375 0.5625
vt 0.554725 0.125
vt 0.757775 0.24222500000000002
vt 0.4375 0.5625
vn 0 2.220446049250313e-16 1
vn 0 2.220446049250313e-16 1
vn 0 2.220446049250313e-16 1
vn 0 2.220446049250313e-16 1
vn 0 2.220446049250313e-16 1
vn 0 2.220446049250313e-16 1
vn 0 2.220446049250313e-16 1
vn 0 2.220446049250313e-16 1
vn 0 2.220446049250313e-16 1
vn 0 2.220446049250313e-16 1
vn 0 2.220446049250313e-16 1
vn 0 2.220446049250313e-16 1
usemtl m_e8b18ad9-d6ea-e27f-cecb-5f41e953b755
f 124/397/115 125/398/115 122/399/115
f 125/400/116 126/401/116 122/402/116
f 126/403/117 127/404/117 122/405/117
f 127/406/118 128/407/118 122/408/118
f 128/409/119 129/410/119 122/411/119
f 129/412/120 130/413/120 122/414/120
f 130/415/121 131/416/121 122/417/121
f 131/418/122 132/419/122 122/420/122
f 132/421/123 133/422/123 122/423/123
f 133/424/124 134/425/124 122/426/124
f 134/427/125 123/428/125 122/429/125
f 123/430/126 124/431/126 122/432/126
o circle
v 0 1.2125 0.1875
v 0.05861375 0.9937499999999999 0.18750000000000006
v 0.16013625 1.0523637499999998 0.18750000000000003
v 0.21875 1.15388625 0.1875
v 0.21875 1.2711137499999998 0.1875
v 0.16013625 1.37263625 0.18749999999999997
v 0.05861375 1.43125 0.18749999999999994
v -0.05861375 1.43125 0.18749999999999994
v -0.16013625 1.37263625 0.18749999999999997
v -0.21875 1.2711137499999998 0.1875
v -0.21875 1.15388625 0.1875
v -0.16013625 1.0523637499999998 0.18750000000000003
v -0.05861375 0.9937499999999999 0.18750000000000006
vt 0.757775 0.24222500000000002
vt 0.875 0.445275
vt 0.4375 0.5625
vt 0.875 0.445275
vt 0.875 0.679725
vt 0.4375 0.5625
vt 0.875 0.679725
vt 0.757775 0.882775
vt 0.4375 0.5625
vt 0.757775 0.882775
vt 0.554725 1
vt 0.4375 0.5625
vt 0.554725 1
vt 0.320275 1
vt 0.4375 0.5625
vt 0.320275 1
vt 0.117225 0.882775
vt 0.4375 0.5625
vt 0.117225 0.882775
vt 0 0.679725
vt 0.4375 0.5625
vt 0 0.679725
vt 0 0.445275
vt 0.4375 0.5625
vt 0 0.445275
vt 0.117225 0.24222500000000002
vt 0.4375 0.5625
vt 0.117225 0.24222500000000002
vt 0.320275 0.125
vt 0.4375 0.5625
vt 0.320275 0.125
vt 0.554725 0.125
vt 0.4375 0.5625
vt 0.554725 0.125
vt 0.757775 0.24222500000000002
vt 0.4375 0.5625
vn 0 2.220446049250313e-16 1
vn 0 2.220446049250313e-16 1
vn 0 2.220446049250313e-16 1
vn 0 2.220446049250313e-16 1
vn 0 2.220446049250313e-16 1
vn 0 2.220446049250313e-16 1
vn 0 2.220446049250313e-16 1
vn 0 2.220446049250313e-16 1
vn 0 2.220446049250313e-16 1
vn 0 2.220446049250313e-16 1
vn 0 2.220446049250313e-16 1
vn 0 2.220446049250313e-16 1
usemtl m_e8b18ad9-d6ea-e27f-cecb-5f41e953b755
f 137/433/127 138/434/127 135/435/127
f 138/436/128 139/437/128 135/438/128
f 139/439/129 140/440/129 135/441/129
f 140/442/130 141/443/130 135/444/130
f 141/445/131 142/446/131 135/447/131
f 142/448/132 143/449/132 135/450/132
f 143/451/133 144/452/133 135/453/133
f 144/454/134 145/455/134 135/456/134
f 145/457/135 146/458/135 135/459/135
f 146/460/136 147/461/136 135/462/136
f 147/463/137 136/464/137 135/465/137
f 136/466/138 137/467/138 135/468/138
o circle
v 0 1.2125 0.25
v 0.05861375 0.9937499999999999 0.25000000000000006
v 0.16013625 1.0523637499999998 0.25000000000000006
v 0.21875 1.15388625 0.25
v 0.21875 1.2711137499999998 0.25
v 0.16013625 1.37263625 0.24999999999999997
v 0.05861375 1.43125 0.24999999999999994
v -0.05861375 1.43125 0.24999999999999994
v -0.16013625 1.37263625 0.24999999999999997
v -0.21875 1.2711137499999998 0.25
v -0.21875 1.15388625 0.25
v -0.16013625 1.0523637499999998 0.25000000000000006
v -0.05861375 0.9937499999999999 0.25000000000000006
vt 0.757775 0.24222500000000002
vt 0.875 0.445275
vt 0.4375 0.5625
vt 0.875 0.445275
vt 0.875 0.679725
vt 0.4375 0.5625
vt 0.875 0.679725
vt 0.757775 0.882775
vt 0.4375 0.5625
vt 0.757775 0.882775
vt 0.554725 1
vt 0.4375 0.5625
vt 0.554725 1
vt 0.320275 1
vt 0.4375 0.5625
vt 0.320275 1
vt 0.117225 0.882775
vt 0.4375 0.5625
vt 0.117225 0.882775
vt 0 0.679725
vt 0.4375 0.5625
vt 0 0.679725
vt 0 0.445275
vt 0.4375 0.5625
vt 0 0.445275
vt 0.117225 0.24222500000000002
vt 0.4375 0.5625
vt 0.117225 0.24222500000000002
vt 0.320275 0.125
vt 0.4375 0.5625
vt 0.320275 0.125
vt 0.554725 0.125
vt 0.4375 0.5625
vt 0.554725 0.125
vt 0.757775 0.24222500000000002
vt 0.4375 0.5625
vn 0 2.220446049250313e-16 1
vn 0 2.220446049250313e-16 1
vn 0 2.220446049250313e-16 1
vn 0 2.220446049250313e-16 1
vn 0 2.220446049250313e-16 1
vn 0 2.220446049250313e-16 1
vn 0 2.220446049250313e-16 1
vn 0 2.220446049250313e-16 1
vn 0 2.220446049250313e-16 1
vn 0 2.220446049250313e-16 1
vn 0 2.220446049250313e-16 1
vn 0 2.220446049250313e-16 1
usemtl m_e8b18ad9-d6ea-e27f-cecb-5f41e953b755
f 150/469/139 151/470/139 148/471/139
f 151/472/140 152/473/140 148/474/140
f 152/475/141 153/476/141 148/477/141
f 153/478/142 154/479/142 148/480/142
f 154/481/143 155/482/143 148/483/143
f 155/484/144 156/485/144 148/486/144
f 156/487/145 157/488/145 148/489/145
f 157/490/146 158/491/146 148/492/146
f 158/493/147 159/494/147 148/495/147
f 159/496/148 160/497/148 148/498/148
f 160/499/149 149/500/149 148/501/149
f 149/502/150 150/503/150 148/504/150
o circle
v 0 1.2125 0.3125
v 0.05861375 0.9937499999999999 0.31250000000000006
v 0.16013625 1.0523637499999998 0.31250000000000006
v 0.21875 1.15388625 0.3125
v 0.21875 1.2711137499999998 0.3125
v 0.16013625 1.37263625 0.31249999999999994
v 0.05861375 1.43125 0.31249999999999994
v -0.05861375 1.43125 0.31249999999999994
v -0.16013625 1.37263625 0.31249999999999994
v -0.21875 1.2711137499999998 0.3125
v -0.21875 1.15388625 0.3125
v -0.16013625 1.0523637499999998 0.31250000000000006
v -0.05861375 0.9937499999999999 0.31250000000000006
vt 0.757775 0.24222500000000002
vt 0.875 0.445275
vt 0.4375 0.5625
vt 0.875 0.445275
vt 0.875 0.679725
vt 0.4375 0.5625
vt 0.875 0.679725
vt 0.757775 0.882775
vt 0.4375 0.5625
vt 0.757775 0.882775
vt 0.554725 1
vt 0.4375 0.5625
vt 0.554725 1
vt 0.320275 1
vt 0.4375 0.5625
vt 0.320275 1
vt 0.117225 0.882775
vt 0.4375 0.5625
vt 0.117225 0.882775
vt 0 0.679725
vt 0.4375 0.5625
vt 0 0.679725
vt 0 0.445275
vt 0.4375 0.5625
vt 0 0.445275
vt 0.117225 0.24222500000000002
vt 0.4375 0.5625
vt 0.117225 0.24222500000000002
vt 0.320275 0.125
vt 0.4375 0.5625
vt 0.320275 0.125
vt 0.554725 0.125
vt 0.4375 0.5625
vt 0.554725 0.125
vt 0.757775 0.24222500000000002
vt 0.4375 0.5625
vn 0 2.220446049250313e-16 1
vn 0 2.220446049250313e-16 1
vn 0 2.220446049250313e-16 1
vn 0 2.220446049250313e-16 1
vn 0 2.220446049250313e-16 1
vn 0 2.220446049250313e-16 1
vn 0 2.220446049250313e-16 1
vn 0 2.220446049250313e-16 1
vn 0 2.220446049250313e-16 1
vn 0 2.220446049250313e-16 1
vn 0 2.220446049250313e-16 1
vn 0 2.220446049250313e-16 1
usemtl m_e8b18ad9-d6ea-e27f-cecb-5f41e953b755
f 163/505/151 164/506/151 161/507/151
f 164/508/152 165/509/152 161/510/152
f 165/511/153 166/512/153 161/513/153
f 166/514/154 167/515/154 161/516/154
f 167/517/155 168/518/155 161/519/155
f 168/520/156 169/521/156 161/522/156
f 169/523/157 170/524/157 161/525/157
f 170/526/158 171/527/158 161/528/158
f 171/529/159 172/530/159 161/531/159
f 172/532/160 173/533/160 161/534/160
f 173/535/161 162/536/161 161/537/161
f 162/538/162 163/539/162 161/540/162
o circle
v 0 1.2125 0.375
v 0.05861375 0.9937499999999999 0.37500000000000006
v 0.16013625 1.0523637499999998 0.37500000000000006
v 0.21875 1.15388625 0.375
v 0.21875 1.2711137499999998 0.375
v 0.16013625 1.37263625 0.37499999999999994
v 0.05861375 1.43125 0.37499999999999994
v -0.05861375 1.43125 0.37499999999999994
v -0.16013625 1.37263625 0.37499999999999994
v -0.21875 1.2711137499999998 0.375
v -0.21875 1.15388625 0.375
v -0.16013625 1.0523637499999998 0.37500000000000006
v -0.05861375 0.9937499999999999 0.37500000000000006
vt 0.757775 0.24222500000000002
vt 0.875 0.445275
vt 0.4375 0.5625
vt 0.875 0.445275
vt 0.875 0.679725
vt 0.4375 0.5625
vt 0.875 0.679725
vt 0.757775 0.882775
vt 0.4375 0.5625
vt 0.757775 0.882775
vt 0.554725 1
vt 0.4375 0.5625
vt 0.554725 1
vt 0.320275 1
vt 0.4375 0.5625
vt 0.320275 1
vt 0.117225 0.882775
vt 0.4375 0.5625
vt 0.117225 0.882775
vt 0 0.679725
vt 0.4375 0.5625
vt 0 0.679725
vt 0 0.445275
vt 0.4375 0.5625
vt 0 0.445275
vt 0.117225 0.24222500000000002
vt 0.4375 0.5625
vt 0.117225 0.24222500000000002
vt 0.320275 0.125
vt 0.4375 0.5625
vt 0.320275 0.125
vt 0.554725 0.125
vt 0.4375 0.5625
vt 0.554725 0.125
vt 0.757775 0.24222500000000002
vt 0.4375 0.5625
vn 0 2.220446049250313e-16 1
vn 0 2.220446049250313e-16 1
vn 0 2.220446049250313e-16 1
vn 0 2.220446049250313e-16 1
vn 0 2.220446049250313e-16 1
vn 0 2.220446049250313e-16 1
vn 0 2.220446049250313e-16 1
vn 0 2.220446049250313e-16 1
vn 0 2.220446049250313e-16 1
vn 0 2.220446049250313e-16 1
vn 0 2.220446049250313e-16 1
vn 0 2.220446049250313e-16 1
usemtl m_e8b18ad9-d6ea-e27f-cecb-5f41e953b755
f 176/541/163 177/542/163 174/543/163
f 177/544/164 178/545/164 174/546/164
f 178/547/165 179/548/165 174/549/165
f 179/550/166 180/551/166 174/552/166
f 180/553/167 181/554/167 174/555/167
f 181/556/168 182/557/168 174/558/168
f 182/559/169 183/560/169 174/561/169
f 183/562/170 184/563/170 174/564/170
f 184/565/171 185/566/171 174/567/171
f 185/568/172 186/569/172 174/570/172
f 186/571/173 175/572/173 174/573/173
f 175/574/174 176/575/174 174/576/174
o circle
v 0 1.2125 0.4375
v 0.05861375 0.9937499999999999 0.43750000000000006
v 0.16013625 1.0523637499999998 0.43750000000000006
v 0.21875 1.15388625 0.4375
v 0.21875 1.2711137499999998 0.4375
v 0.16013625 1.37263625 0.43749999999999994
v 0.05861375 1.43125 0.43749999999999994
v -0.05861375 1.43125 0.43749999999999994
v -0.16013625 1.37263625 0.43749999999999994
v -0.21875 1.2711137499999998 0.4375
v -0.21875 1.15388625 0.4375
v -0.16013625 1.0523637499999998 0.43750000000000006
v -0.05861375 0.9937499999999999 0.43750000000000006
vt 0.757775 0.24222500000000002
vt 0.875 0.445275
vt 0.4375 0.5625
vt 0.875 0.445275
vt 0.875 0.679725
vt 0.4375 0.5625
vt 0.875 0.679725
vt 0.757775 0.882775
vt 0.4375 0.5625
vt 0.757775 0.882775
vt 0.554725 1
vt 0.4375 0.5625
vt 0.554725 1
vt 0.320275 1
vt 0.4375 0.5625
vt 0.320275 1
vt 0.117225 0.882775
vt 0.4375 0.5625
vt 0.117225 0.882775
vt 0 0.679725
vt 0.4375 0.5625
vt 0 0.679725
vt 0 0.445275
vt 0.4375 0.5625
vt 0 0.445275
vt 0.117225 0.24222500000000002
vt 0.4375 0.5625
vt 0.117225 0.24222500000000002
vt 0.320275 0.125
vt 0.4375 0.5625
vt 0.320275 0.125
vt 0.554725 0.125
vt 0.4375 0.5625
vt 0.554725 0.125
vt 0.757775 0.24222500000000002
vt 0.4375 0.5625
vn 0 2.220446049250313e-16 1
vn 0 2.220446049250313e-16 1
vn 0 2.220446049250313e-16 1
vn 0 2.220446049250313e-16 1
vn 0 2.220446049250313e-16 1
vn 0 2.220446049250313e-16 1
vn 0 2.220446049250313e-16 1
vn 0 2.220446049250313e-16 1
vn 0 2.220446049250313e-16 1
vn 0 2.220446049250313e-16 1
vn 0 2.220446049250313e-16 1
vn 0 2.220446049250313e-16 1
usemtl m_e8b18ad9-d6ea-e27f-cecb-5f41e953b755
f 189/577/175 190/578/175 187/579/175
f 190/580/176 191/581/176 187/582/176
f 191/583/177 192/584/177 187/585/177
f 192/586/178 193/587/178 187/588/178
f 193/589/179 194/590/179 187/591/179
f 194/592/180 195/593/180 187/594/180
f 195/595/181 196/596/181 187/597/181
f 196/598/182 197/599/182 187/600/182
f 197/601/183 198/602/183 187/603/183
f 198/604/184 199/605/184 187/606/184
f 199/607/185 188/608/185 187/609/185
f 188/610/186 189/611/186 187/612/186
o circle
v 0 1.2125 0.5
v 0.05861375 0.9937499999999999 0.5
v 0.16013625 1.0523637499999998 0.5
v 0.21875 1.15388625 0.5
v 0.21875 1.2711137499999998 0.5
v 0.16013625 1.37263625 0.49999999999999994
v 0.05861375 1.43125 0.49999999999999994
v -0.05861375 1.43125 0.49999999999999994
v -0.16013625 1.37263625 0.49999999999999994
v -0.21875 1.2711137499999998 0.5
v -0.21875 1.15388625 0.5
v -0.16013625 1.0523637499999998 0.5
v -0.05861375 0.9937499999999999 0.5
vt 0.757775 0.24222500000000002
vt 0.875 0.445275
vt 0.4375 0.5625
vt 0.875 0.445275
vt 0.875 0.679725
vt 0.4375 0.5625
vt 0.875 0.679725
vt 0.757775 0.882775
vt 0.4375 0.5625
vt 0.757775 0.882775
vt 0.554725 1
vt 0.4375 0.5625
vt 0.554725 1
vt 0.320275 1
vt 0.4375 0.5625
vt 0.320275 1
vt 0.117225 0.882775
vt 0.4375 0.5625
vt 0.117225 0.882775
vt 0 0.679725
vt 0.4375 0.5625
vt 0 0.679725
vt 0 0.445275
vt 0.4375 0.5625
vt 0 0.445275
vt 0.117225 0.24222500000000002
vt 0.4375 0.5625
vt 0.117225 0.24222500000000002
vt 0.320275 0.125
vt 0.4375 0.5625
vt 0.320275 0.125
vt 0.554725 0.125
vt 0.4375 0.5625
vt 0.554725 0.125
vt 0.757775 0.24222500000000002
vt 0.4375 0.5625
vn 0 2.220446049250313e-16 1
vn 0 2.220446049250313e-16 1
vn 0 2.220446049250313e-16 1
vn 0 2.220446049250313e-16 1
vn 0 2.220446049250313e-16 1
vn 0 2.220446049250313e-16 1
vn 0 2.220446049250313e-16 1
vn 0 2.220446049250313e-16 1
vn 0 2.220446049250313e-16 1
vn 0 2.220446049250313e-16 1
vn 0 2.220446049250313e-16 1
vn 0 2.220446049250313e-16 1
usemtl m_e8b18ad9-d6ea-e27f-cecb-5f41e953b755
f 202/613/187 203/614/187 200/615/187
f 203/616/188 204/617/188 200/618/188
f 204/619/189 205/620/189 200/621/189
f 205/622/190 206/623/190 200/624/190
f 206/625/191 207/626/191 200/627/191
f 207/628/192 208/629/192 200/630/192
f 208/631/193 209/632/193 200/633/193
f 209/634/194 210/635/194 200/636/194
f 210/637/195 211/638/195 200/639/195
f 211/640/196 212/641/196 200/642/196
f 212/643/197 201/644/197 200/645/197
f 201/646/198 202/647/198 200/648/198
o circle
v 0 1.2125 0.5625
v 0.05861375 0.9937499999999999 0.5625
v 0.16013625 1.0523637499999998 0.5625
v 0.21875 1.15388625 0.5625
v 0.21875 1.2711137499999998 0.5625
v 0.16013625 1.37263625 0.5625
v 0.05861375 1.43125 0.5625
v -0.05861375 1.43125 0.5625
v -0.16013625 1.37263625 0.5625
v -0.21875 1.2711137499999998 0.5625
v -0.21875 1.15388625 0.5625
v -0.16013625 1.0523637499999998 0.5625
v -0.05861375 0.9937499999999999 0.5625
vt 0.757775 0.24222500000000002
vt 0.875 0.445275
vt 0.4375 0.5625
vt 0.875 0.445275
vt 0.875 0.679725
vt 0.4375 0.5625
vt 0.875 0.679725
vt 0.757775 0.882775
vt 0.4375 0.5625
vt 0.757775 0.882775
vt 0.554725 1
vt 0.4375 0.5625
vt 0.554725 1
vt 0.320275 1
vt 0.4375 0.5625
vt 0.320275 1
vt 0.117225 0.882775
vt 0.4375 0.5625
vt 0.117225 0.882775
vt 0 0.679725
vt 0.4375 0.5625
vt 0 0.679725
vt 0 0.445275
vt 0.4375 0.5625
vt 0 0.445275
vt 0.117225 0.24222500000000002
vt 0.4375 0.5625
vt 0.117225 0.24222500000000002
vt 0.320275 0.125
vt 0.4375 0.5625
vt 0.320275 0.125
vt 0.554725 0.125
vt 0.4375 0.5625
vt 0.554725 0.125
vt 0.757775 0.24222500000000002
vt 0.4375 0.5625
vn 0 2.220446049250313e-16 1
vn 0 2.220446049250313e-16 1
vn 0 2.220446049250313e-16 1
vn 0 2.220446049250313e-16 1
vn 0 2.220446049250313e-16 1
vn 0 2.220446049250313e-16 1
vn 0 2.220446049250313e-16 1
vn 0 2.220446049250313e-16 1
vn 0 2.220446049250313e-16 1
vn 0 2.220446049250313e-16 1
vn 0 2.220446049250313e-16 1
vn 0 2.220446049250313e-16 1
usemtl m_e8b18ad9-d6ea-e27f-cecb-5f41e953b755
f 215/649/199 216/650/199 213/651/199
f 216/652/200 217/653/200 213/654/200
f 217/655/201 218/656/201 213/657/201
f 218/658/202 219/659/202 213/660/202
f 219/661/203 220/662/203 213/663/203
f 220/664/204 221/665/204 213/666/204
f 221/667/205 222/668/205 213/669/205
f 222/670/206 223/671/206 213/672/206
f 223/673/207 224/674/207 213/675/207
f 224/676/208 225/677/208 213/678/208
f 225/679/209 214/680/209 213/681/209
f 214/682/210 215/683/210 213/684/210
o circle
v 0 1.2125 0.625
v 0.05861375 0.9937499999999999 0.625
v 0.16013625 1.0523637499999998 0.625
v 0.21875 1.15388625 0.625
v 0.21875 1.2711137499999998 0.625
v 0.16013625 1.37263625 0.625
v 0.05861375 1.43125 0.625
v -0.05861375 1.43125 0.625
v -0.16013625 1.37263625 0.625
v -0.21875 1.2711137499999998 0.625
v -0.21875 1.15388625 0.625
v -0.16013625 1.0523637499999998 0.625
v -0.05861375 0.9937499999999999 0.625
vt 0.757775 0.24222500000000002
vt 0.875 0.445275
vt 0.4375 0.5625
vt 0.875 0.445275
vt 0.875 0.679725
vt 0.4375 0.5625
vt 0.875 0.679725
vt 0.757775 0.882775
vt 0.4375 0.5625
vt 0.757775 0.882775
vt 0.554725 1
vt 0.4375 0.5625
vt 0.554725 1
vt 0.320275 1
vt 0.4375 0.5625
vt 0.320275 1
vt 0.117225 0.882775
vt 0.4375 0.5625
vt 0.117225 0.882775
vt 0 0.679725
vt 0.4375 0.5625
vt 0 0.679725
vt 0 0.445275
vt 0.4375 0.5625
vt 0 0.445275
vt 0.117225 0.24222500000000002
vt 0.4375 0.5625
vt 0.117225 0.24222500000000002
vt 0.320275 0.125
vt 0.4375 0.5625
vt 0.320275 0.125
vt 0.554725 0.125
vt 0.4375 0.5625
vt 0.554725 0.125
vt 0.757775 0.24222500000000002
vt 0.4375 0.5625
vn 0 2.220446049250313e-16 1
vn 0 2.220446049250313e-16 1
vn 0 2.220446049250313e-16 1
vn 0 2.220446049250313e-16 1
vn 0 2.220446049250313e-16 1
vn 0 2.220446049250313e-16 1
vn 0 2.220446049250313e-16 1
vn 0 2.220446049250313e-16 1
vn 0 2.220446049250313e-16 1
vn 0 2.220446049250313e-16 1
vn 0 2.220446049250313e-16 1
vn 0 2.220446049250313e-16 1
usemtl m_e8b18ad9-d6ea-e27f-cecb-5f41e953b755
f 228/685/211 229/686/211 226/687/211
f 229/688/212 230/689/212 226/690/212
f 230/691/213 231/692/213 226/693/213
f 231/694/214 232/695/214 226/696/214
f 232/697/215 233/698/215 226/699/215
f 233/700/216 234/701/216 226/702/216
f 234/703/217 235/704/217 226/705/217
f 235/706/218 236/707/218 226/708/218
f 236/709/219 237/710/219 226/711/219
f 237/712/220 238/713/220 226/714/220
f 238/715/221 227/716/221 226/717/221
f 227/718/222 228/719/222 226/720/222
o circle
v 0 1.2125 0.6875
v 0.05861375 0.9937499999999999 0.6875
v 0.16013625 1.0523637499999998 0.6875
v 0.21875 1.15388625 0.6875
v 0.21875 1.2711137499999998 0.6875
v 0.16013625 1.37263625 0.6875
v 0.05861375 1.43125 0.6875
v -0.05861375 1.43125 0.6875
v -0.16013625 1.37263625 0.6875
v -0.21875 1.2711137499999998 0.6875
v -0.21875 1.15388625 0.6875
v -0.16013625 1.0523637499999998 0.6875
v -0.05861375 0.9937499999999999 0.6875
vt 0.757775 0.24222500000000002
vt 0.875 0.445275
vt 0.4375 0.5625
vt 0.875 0.445275
vt 0.875 0.679725
vt 0.4375 0.5625
vt 0.875 0.679725
vt 0.757775 0.882775
vt 0.4375 0.5625
vt 0.757775 0.882775
vt 0.554725 1
vt 0.4375 0.5625
vt 0.554725 1
vt 0.320275 1
vt 0.4375 0.5625
vt 0.320275 1
vt 0.117225 0.882775
vt 0.4375 0.5625
vt 0.117225 0.882775
vt 0 0.679725
vt 0.4375 0.5625
vt 0 0.679725
vt 0 0.445275
vt 0.4375 0.5625
vt 0 0.445275
vt 0.117225 0.24222500000000002
vt 0.4375 0.5625
vt 0.117225 0.24222500000000002
vt 0.320275 0.125
vt 0.4375 0.5625
vt 0.320275 0.125
vt 0.554725 0.125
vt 0.4375 0.5625
vt 0.554725 0.125
vt 0.757775 0.24222500000000002
vt 0.4375 0.5625
vn 0 2.220446049250313e-16 1
vn 0 2.220446049250313e-16 1
vn 0 2.220446049250313e-16 1
vn 0 2.220446049250313e-16 1
vn 0 2.220446049250313e-16 1
vn 0 2.220446049250313e-16 1
vn 0 2.220446049250313e-16 1
vn 0 2.220446049250313e-16 1
vn 0 2.220446049250313e-16 1
vn 0 2.220446049250313e-16 1
vn 0 2.220446049250313e-16 1
vn 0 2.220446049250313e-16 1
usemtl m_e8b18ad9-d6ea-e27f-cecb-5f41e953b755
f 241/721/223 242/722/223 239/723/223
f 242/724/224 243/725/224 239/726/224
f 243/727/225 244/728/225 239/729/225
f 244/730/226 245/731/226 239/732/226
f 245/733/227 246/734/227 239/735/227
f 246/736/228 247/737/228 239/738/228
f 247/739/229 248/740/229 239/741/229
f 248/742/230 249/743/230 239/744/230
f 249/745/231 250/746/231 239/747/231
f 250/748/232 251/749/232 239/750/232
f 251/751/233 240/752/233 239/753/233
f 240/754/234 241/755/234 239/756/234
o circle
v 0 1.2125 0.75
v 0.05861375 0.9937499999999999 0.75
v 0.16013625 1.0523637499999998 0.75
v 0.21875 1.15388625 0.75
v 0.21875 1.2711137499999998 0.75
v 0.16013625 1.37263625 0.75
v 0.05861375 1.43125 0.75
v -0.05861375 1.43125 0.75
v -0.16013625 1.37263625 0.75
v -0.21875 1.2711137499999998 0.75
v -0.21875 1.15388625 0.75
v -0.16013625 1.0523637499999998 0.75
v -0.05861375 0.9937499999999999 0.75
vt 0.757775 0.24222500000000002
vt 0.875 0.445275
vt 0.4375 0.5625
vt 0.875 0.445275
vt 0.875 0.679725
vt 0.4375 0.5625
vt 0.875 0.679725
vt 0.757775 0.882775
vt 0.4375 0.5625
vt 0.757775 0.882775
vt 0.554725 1
vt 0.4375 0.5625
vt 0.554725 1
vt 0.320275 1
vt 0.4375 0.5625
vt 0.320275 1
vt 0.117225 0.882775
vt 0.4375 0.5625
vt 0.117225 0.882775
vt 0 0.679725
vt 0.4375 0.5625
vt 0 0.679725
vt 0 0.445275
vt 0.4375 0.5625
vt 0 0.445275
vt 0.117225 0.24222500000000002
vt 0.4375 0.5625
vt 0.117225 0.24222500000000002
vt 0.320275 0.125
vt 0.4375 0.5625
vt 0.320275 0.125
vt 0.554725 0.125
vt 0.4375 0.5625
vt 0.554725 0.125
vt 0.757775 0.24222500000000002
vt 0.4375 0.5625
vn 0 2.220446049250313e-16 1
vn 0 2.220446049250313e-16 1
vn 0 2.220446049250313e-16 1
vn 0 2.220446049250313e-16 1
vn 0 2.220446049250313e-16 1
vn 0 2.220446049250313e-16 1
vn 0 2.220446049250313e-16 1
vn 0 2.220446049250313e-16 1
vn 0 2.220446049250313e-16 1
vn 0 2.220446049250313e-16 1
vn 0 2.220446049250313e-16 1
vn 0 2.220446049250313e-16 1
usemtl m_e8b18ad9-d6ea-e27f-cecb-5f41e953b755
f 254/757/235 255/758/235 252/759/235
f 255/760/236 256/761/236 252/762/236
f 256/763/237 257/764/237 252/765/237
f 257/766/238 258/767/238 252/768/238
f 258/769/239 259/770/239 252/771/239
f 259/772/240 260/773/240 252/774/240
f 260/775/241 261/776/241 252/777/241
f 261/778/242 262/779/242 252/780/242
f 262/781/243 263/782/243 252/783/243
f 263/784/244 264/785/244 252/786/244
f 264/787/245 253/788/245 252/789/245
f 253/790/246 254/791/246 252/792/246
o circle
v 0 1.2125 0.8125
v 0.05861375 0.9937499999999999 0.8125
v 0.16013625 1.0523637499999998 0.8125
v 0.21875 1.15388625 0.8125
v 0.21875 1.2711137499999998 0.8125
v 0.16013625 1.37263625 0.8125
v 0.05861375 1.43125 0.8125
v -0.05861375 1.43125 0.8125
v -0.16013625 1.37263625 0.8125
v -0.21875 1.2711137499999998 0.8125
v -0.21875 1.15388625 0.8125
v -0.16013625 1.0523637499999998 0.8125
v -0.05861375 0.9937499999999999 0.8125
vt 0.757775 0.24222500000000002
vt 0.875 0.445275
vt 0.4375 0.5625
vt 0.875 0.445275
vt 0.875 0.679725
vt 0.4375 0.5625
vt 0.875 0.679725
vt 0.757775 0.882775
vt 0.4375 0.5625
vt 0.757775 0.882775
vt 0.554725 1
vt 0.4375 0.5625
vt 0.554725 1
vt 0.320275 1
vt 0.4375 0.5625
vt 0.320275 1
vt 0.117225 0.882775
vt 0.4375 0.5625
vt 0.117225 0.882775
vt 0 0.679725
vt 0.4375 0.5625
vt 0 0.679725
vt 0 0.445275
vt 0.4375 0.5625
vt 0 0.445275
vt 0.117225 0.24222500000000002
vt 0.4375 0.5625
vt 0.117225 0.24222500000000002
vt 0.320275 0.125
vt 0.4375 0.5625
vt 0.320275 0.125
vt 0.554725 0.125
vt 0.4375 0.5625
vt 0.554725 0.125
vt 0.757775 0.24222500000000002
vt 0.4375 0.5625
vn 0 2.220446049250313e-16 1
vn 0 2.220446049250313e-16 1
vn 0 2.220446049250313e-16 1
vn 0 2.220446049250313e-16 1
vn 0 2.220446049250313e-16 1
vn 0 2.220446049250313e-16 1
vn 0 2.220446049250313e-16 1
vn 0 2.220446049250313e-16 1
vn 0 2.220446049250313e-16 1
vn 0 2.220446049250313e-16 1
vn 0 2.220446049250313e-16 1
vn 0 2.220446049250313e-16 1
usemtl m_e8b18ad9-d6ea-e27f-cecb-5f41e953b755
f 267/793/247 268/794/247 265/795/247
f 268/796/248 269/797/248 265/798/248
f 269/799/249 270/800/249 265/801/249
f 270/802/250 271/803/250 265/804/250
f 271/805/251 272/806/251 265/807/251
f 272/808/252 273/809/252 265/810/252
f 273/811/253 274/812/253 265/813/253
f 274/814/254 275/815/254 265/816/254
f 275/817/255 276/818/255 265/819/255
f 276/820/256 277/821/256 265/822/256
f 277/823/257 266/824/257 265/825/257
f 266/826/258 267/827/258 265/828/258
o circle
v 0 1.2125 0.875
v 0.05861375 0.9937499999999999 0.875
v 0.16013625 1.0523637499999998 0.875
v 0.21875 1.15388625 0.875
v 0.21875 1.2711137499999998 0.875
v 0.16013625 1.37263625 0.875
v 0.05861375 1.43125 0.875
v -0.05861375 1.43125 0.875
v -0.16013625 1.37263625 0.875
v -0.21875 1.2711137499999998 0.875
v -0.21875 1.15388625 0.875
v -0.16013625 1.0523637499999998 0.875
v -0.05861375 0.9937499999999999 0.875
vt 0.757775 0.24222500000000002
vt 0.875 0.445275
vt 0.4375 0.5625
vt 0.875 0.445275
vt 0.875 0.679725
vt 0.4375 0.5625
vt 0.875 0.679725
vt 0.757775 0.882775
vt 0.4375 0.5625
vt 0.757775 0.882775
vt 0.554725 1
vt 0.4375 0.5625
vt 0.554725 1
vt 0.320275 1
vt 0.4375 0.5625
vt 0.320275 1
vt 0.117225 0.882775
vt 0.4375 0.5625
vt 0.117225 0.882775
vt 0 0.679725
vt 0.4375 0.5625
vt 0 0.679725
vt 0 0.445275
vt 0.4375 0.5625
vt 0 0.445275
vt 0.117225 0.24222500000000002
vt 0.4375 0.5625
vt 0.117225 0.24222500000000002
vt 0.320275 0.125
vt 0.4375 0.5625
vt 0.320275 0.125
vt 0.554725 0.125
vt 0.4375 0.5625
vt 0.554725 0.125
vt 0.757775 0.24222500000000002
vt 0.4375 0.5625
vn 0 2.220446049250313e-16 1
vn 0 2.220446049250313e-16 1
vn 0 2.220446049250313e-16 1
vn 0 2.220446049250313e-16 1
vn 0 2.220446049250313e-16 1
vn 0 2.220446049250313e-16 1
vn 0 2.220446049250313e-16 1
vn 0 2.220446049250313e-16 1
vn 0 2.220446049250313e-16 1
vn 0 2.220446049250313e-16 1
vn 0 2.220446049250313e-16 1
vn 0 2.220446049250313e-16 1
usemtl m_e8b18ad9-d6ea-e27f-cecb-5f41e953b755
f 280/829/259 281/830/259 278/831/259
f 281/832/260 282/833/260 278/834/260
f 282/835/261 283/836/261 278/837/261
f 283/838/262 284/839/262 278/840/262
f 284/841/263 285/842/263 278/843/263
f 285/844/264 286/845/264 278/846/264
f 286/847/265 287/848/265 278/849/265
f 287/850/266 288/851/266 278/852/266
f 288/853/267 289/854/267 278/855/267
f 289/856/268 290/857/268 278/858/268
f 290/859/269 279/860/269 278/861/269
f 279/862/270 280/863/270 278/864/270
o circle
v 0 1.2125 0.9375
v 0.05861375 0.9937499999999999 0.9375
v 0.16013625 1.0523637499999998 0.9375
v 0.21875 1.15388625 0.9375
v 0.21875 1.2711137499999998 0.9375
v 0.16013625 1.37263625 0.9375
v 0.05861375 1.43125 0.9375
v -0.05861375 1.43125 0.9375
v -0.16013625 1.37263625 0.9375
v -0.21875 1.2711137499999998 0.9375
v -0.21875 1.15388625 0.9375
v -0.16013625 1.0523637499999998 0.9375
v -0.05861375 0.9937499999999999 0.9375
vt 0.757775 0.24222500000000002
vt 0.875 0.445275
vt 0.4375 0.5625
vt 0.875 0.445275
vt 0.875 0.679725
vt 0.4375 0.5625
vt 0.875 0.679725
vt 0.757775 0.882775
vt 0.4375 0.5625
vt 0.757775 0.882775
vt 0.554725 1
vt 0.4375 0.5625
vt 0.554725 1
vt 0.320275 1
vt 0.4375 0.5625
vt 0.320275 1
vt 0.117225 0.882775
vt 0.4375 0.5625
vt 0.117225 0.882775
vt 0 0.679725
vt 0.4375 0.5625
vt 0 0.679725
vt 0 0.445275
vt 0.4375 0.5625
vt 0 0.445275
vt 0.117225 0.24222500000000002
vt 0.4375 0.5625
vt 0.117225 0.24222500000000002
vt 0.320275 0.125
vt 0.4375 0.5625
vt 0.320275 0.125
vt 0.554725 0.125
vt 0.4375 0.5625
vt 0.554725 0.125
vt 0.757775 0.24222500000000002
vt 0.4375 0.5625
vn 0 2.220446049250313e-16 1
vn 0 2.220446049250313e-16 1
vn 0 2.220446049250313e-16 1
vn 0 2.220446049250313e-16 1
vn 0 2.220446049250313e-16 1
vn 0 2.220446049250313e-16 1
vn 0 2.220446049250313e-16 1
vn 0 2.220446049250313e-16 1
vn 0 2.220446049250313e-16 1
vn 0 2.220446049250313e-16 1
vn 0 2.220446049250313e-16 1
vn 0 2.220446049250313e-16 1
usemtl m_e8b18ad9-d6ea-e27f-cecb-5f41e953b755
f 293/865/271 294/866/271 291/867/271
f 294/868/272 295/869/272 291/870/272
f 295/871/273 296/872/273 291/873/273
f 296/874/274 297/875/274 291/876/274
f 297/877/275 298/878/275 291/879/275
f 298/880/276 299/881/276 291/882/276
f 299/883/277 300/884/277 291/885/277
f 300/886/278 301/887/278 291/888/278
f 301/889/279 302/890/279 291/891/279
f 302/892/280 303/893/280 291/894/280
f 303/895/281 292/896/281 291/897/281
f 292/898/282 293/899/282 291/900/282
o circle
v 0 1.2125 1
v 0.05861375 0.9937499999999999 1
v 0.16013625 1.0523637499999998 1
v 0.21875 1.15388625 1
v 0.21875 1.2711137499999998 1
v 0.16013625 1.37263625 1
v 0.05861375 1.43125 1
v -0.05861375 1.43125 1
v -0.16013625 1.37263625 1
v -0.21875 1.2711137499999998 1
v -0.21875 1.15388625 1
v -0.16013625 1.0523637499999998 1
v -0.05861375 0.9937499999999999 1
vt 0.757775 0.24222500000000002
vt 0.875 0.445275
vt 0.4375 0.5625
vt 0.875 0.445275
vt 0.875 0.679725
vt 0.4375 0.5625
vt 0.875 0.679725
vt 0.757775 0.882775
vt 0.4375 0.5625
vt 0.757775 0.882775
vt 0.554725 1
vt 0.4375 0.5625
vt 0.554725 1
vt 0.320275 1
vt 0.4375 0.5625
vt 0.320275 1
vt 0.117225 0.882775
vt 0.4375 0.5625
vt 0.117225 0.882775
vt 0 0.679725
vt 0.4375 0.5625
vt 0 0.679725
vt 0 0.445275
vt 0.4375 0.5625
vt 0 0.445275
vt 0.117225 0.24222500000000002
vt 0.4375 0.5625
vt 0.117225 0.24222500000000002
vt 0.320275 0.125
vt 0.4375 0.5625
vt 0.320275 0.125
vt 0.554725 0.125
vt 0.4375 0.5625
vt 0.554725 0.125
vt 0.757775 0.24222500000000002
vt 0.4375 0.5625
vn 0 2.220446049250313e-16 1
vn 0 2.220446049250313e-16 1
vn 0 2.220446049250313e-16 1
vn 0 2.220446049250313e-16 1
vn 0 2.220446049250313e-16 1
vn 0 2.220446049250313e-16 1
vn 0 2.220446049250313e-16 1
vn 0 2.220446049250313e-16 1
vn 0 2.220446049250313e-16 1
vn 0 2.220446049250313e-16 1
vn 0 2.220446049250313e-16 1
vn 0 2.220446049250313e-16 1
usemtl m_e8b18ad9-d6ea-e27f-cecb-5f41e953b755
f 306/901/283 307/902/283 304/903/283
f 307/904/284 308/905/284 304/906/284
f 308/907/285 309/908/285 304/909/285
f 309/910/286 310/911/286 304/912/286
f 310/913/287 311/914/287 304/915/287
f 311/916/288 312/917/288 304/918/288
f 312/919/289 313/920/289 304/921/289
f 313/922/290 314/923/290 304/924/290
f 314/925/291 315/926/291 304/927/291
f 315/928/292 316/929/292 304/930/292
f 316/931/293 305/932/293 304/933/293
f 305/934/294 306/935/294 304/936/294
o mesh
v 0.43404536794660176 1.2133582307139608 -0.40625
v 0.43404536794660176 1.2133582307139608 -0.46875
v 0.4177295939190953 1.0894276230422344 -0.40625
v 0.4177295939190953 1.0894276230422344 -0.46875
v -0.061677062740303434 1.2786213268239865 -0.40625
v -0.061677062740303434 1.2786213268239865 -0.46875
v -0.07799283676780988 1.1546907191522602 -0.40625
v -0.07799283676780988 1.1546907191522602 -0.46875
vt 0.625 1
vt 0.5625 1
vt 0.5625 0.875
vt 0.625 0.875
vt 0.625 0.6875
vt 0.625 0.8125
vt 0.5625 0.8125
vt 0.5625 0.6875
vt 0 0.5625
vt 0.5 0.5625
vt 0.5 0.625
vt 0 0.625
vt 0.5 0.4375
vt 0.5 0.5
vt 0 0.5
vt 0 0.4375
vt 0.5 0.875
vt 0.5 1
vt 0 1
vt 0 0.875
vt 0.5 0.8125
vt 0 0.8125
vt 0 0.6875
vt 0.5 0.6875
vn 0.9914448613738104 -0.13052619222005157 0
vn -0.9914448613738104 0.13052619222005157 0
vn 0.13052619222005157 0.9914448613738104 0
vn -0.13052619222005157 -0.9914448613738104 0
vn 0 0 1
vn 0 0 -1
usemtl m_141ffa8e-b300-9605-fdcd-6541f911c567
f 318/937/295 317/938/295 319/939/295 320/940/295
f 323/941/296 321/942/296 322/943/296 324/944/296
f 321/945/297 317/946/297 318/947/297 322/948/297
f 320/949/298 319/950/298 323/951/298 324/952/298
f 319/953/299 317/954/299 321/955/299 323/956/299
f 322/957/300 318/958/300 320/959/300 324/960/300